<svg width="100" height="100" viewBox="0 0 100 100" fill="none" xmlns="http://www.w3.org/2000/svg">
  <!-- Glow effect filter -->
  <filter id="glow" x="-50%" y="-50%" width="200%" height="200%">
    <feGaussianBlur stdDeviation="4" result="coloredBlur"/>
    <feMerge> 
      <feMergeNode in="coloredBlur"/>
      <feMergeNode in="SourceGraphic"/>
    </feMerge>
  </filter>
  
  <!-- Shadow -->
  <path
    d="M20 70 L20 50 L40 50 L40 30 L70 60 L40 90 L40 60 L20 60 Z"
    fill="rgba(0, 0, 0, 0.15)"
    transform="translate(3, 3)"
  />
  
  <!-- Main L-shaped arrow path -->
  <path
    d="M20 65 L20 45 L40 45 L40 25 L70 55 L40 85 L40 55 L20 55 Z"
    fill="url(#blueGradient)"
    filter="url(#glow)"
  />
  
  <!-- Top surface highlight -->
  <path
    d="M20 45 L40 45 L40 25 L70 55 L40 85 L40 65 L20 65 Z"
    fill="url(#highlightGradient)"
    opacity="0.4"
  />
  
  <!-- Inner curve for 3D effect -->
  <path
    d="M25 50 Q30 55 25 60"
    stroke="url(#innerCurve)"
    stroke-width="1.5"
    fill="none"
    opacity="0.7"
  />
  
  <!-- Gradients -->
  <defs>
    <linearGradient id="blueGradient" x1="0%" y1="0%" x2="100%" y2="100%">
      <stop offset="0%" stop-color="#00bfff" />
      <stop offset="30%" stop-color="#0099ff" />
      <stop offset="70%" stop-color="#0066cc" />
      <stop offset="100%" stop-color="#004499" />
    </linearGradient>
    <linearGradient id="highlightGradient" x1="0%" y1="0%" x2="100%" y2="100%">
      <stop offset="0%" stop-color="#66d9ff" />
      <stop offset="50%" stop-color="#00bfff" />
      <stop offset="100%" stop-color="#0099ff" />
    </linearGradient>
    <linearGradient id="innerCurve" x1="0%" y1="0%" x2="100%" y2="100%">
      <stop offset="0%" stop-color="#33ccff" />
      <stop offset="100%" stop-color="#0066cc" />
    </linearGradient>
  </defs>
</svg>